<?xml version="1.0" encoding="UTF-8" standalone="no"?>
<svg width="162px" height="162px" viewBox="0 0 162 162" version="1.1" xmlns="http://www.w3.org/2000/svg" xmlns:xlink="http://www.w3.org/1999/xlink">
    <!-- Generator: Sketch 41 (35326) - http://www.bohemiancoding.com/sketch -->
    <title>noun_1156069_cc</title>
    <desc>Created with Sketch.</desc>
    <defs></defs>
    <g id="Platform" stroke="none" stroke-width="1" fill="none" fill-rule="evenodd">
        <g id="invoice-empty" transform="translate(-194.000000, -496.000000)">
            <g id="noun_1156069_cc" transform="translate(194.000000, 496.000000)">
                <g id="Group">
                    <g id="Shape">
                        <path d="M81,24.3 C49.7358,24.3 24.3,49.7358 24.3,81 C24.3,112.2642 49.7358,137.7 81,137.7 C93.4812,137.7 105.3252,133.713 115.2486,126.171 C116.4366,125.2692 116.667,123.5754 115.7652,122.3874 C114.8634,121.1994 113.166,120.969 111.9816,121.8708 C103.005,128.6928 92.2896,132.3 81,132.3 C52.713,132.3 29.7,109.287 29.7,81 C29.7,52.713 52.713,29.7 81,29.7 C109.287,29.7 132.3,52.713 132.3,81 C132.3,90.5382 129.6504,99.8496 124.641,107.9262 C123.8544,109.1934 124.2432,110.8584 125.5104,111.6432 C126.7776,112.4316 128.4444,112.041 129.2274,110.7738 C134.7714,101.8386 137.7,91.5426 137.7,81 C137.7,49.7358 112.2642,24.3 81,24.3 Z" fill="#000000"></path>
                        <path d="M124.4016,113.1894 C123.2406,112.2516 121.5396,112.4316 120.6054,113.5944 C119.5848,114.8598 118.4292,116.127 117.1764,117.3636 C116.1144,118.4094 116.1,120.1176 117.1476,121.1814 C117.675,121.7178 118.3734,121.986 119.07,121.986 C119.754,121.986 120.4398,121.7268 120.9654,121.2084 C122.364,119.8296 123.6564,118.4094 124.8066,116.9856 C125.7426,115.8264 125.5626,114.1254 124.4016,113.1894 Z" fill="#000000"></path>
                        <path d="M52.551,104.5296 C51.5898,103.3902 49.887,103.2462 48.7458,104.2092 C47.6064,105.1704 47.4642,106.875 48.4272,108.0126 C49.644,109.4544 50.9724,110.8458 52.3764,112.1526 C52.8966,112.6386 53.5572,112.8762 54.2142,112.8762 C54.9378,112.8762 55.6596,112.5882 56.1906,112.0158 C57.2058,110.925 57.1464,109.215 56.0538,108.1998 C54.81,107.0424 53.631,105.8058 52.551,104.5296 Z" fill="#258C42"></path>
                        <path d="M58.5594,116.8758 C65.259,121.0788 73.0188,123.3 81,123.3 C104.3244,123.3 123.3,104.3244 123.3,81 C123.3,73.0188 121.0788,65.259 116.8758,58.5594 C116.0856,57.2958 114.4152,56.9124 113.1552,57.7062 C111.8916,58.4982 111.51,60.165 112.302,61.4268 C115.965,67.2678 117.9,74.0358 117.9,81 C117.9,101.3472 101.3472,117.9 81,117.9 C74.0358,117.9 67.2678,115.965 61.4286,112.302 C60.165,111.51 58.5,111.8898 57.708,113.1552 C56.9142,114.4152 57.2958,116.082 58.5594,116.8758 Z" fill="#000000"></path>
                        <path d="M98.91,48.726 C100.206,49.4478 101.8566,48.9852 102.582,47.6802 C103.3074,46.3752 102.8394,44.7318 101.5362,44.0064 C95.2992,40.536 88.1982,38.7 81,38.7 C57.6756,38.7 38.7,57.6756 38.7,81 C38.7,88.1982 40.536,95.2992 44.0082,101.5362 C44.5014,102.4236 45.4212,102.924 46.3698,102.924 C46.8144,102.924 47.2644,102.8142 47.682,102.5838 C48.9852,101.8584 49.4514,100.215 48.7278,98.9118 C45.7002,93.4758 44.1018,87.282 44.1018,81.0018 C44.1018,60.6546 60.6546,44.1018 81.0018,44.1018 C87.2802,44.1 93.4758,45.7002 98.91,48.726 Z" fill="#000000"></path>
                        <path d="M108.2016,56.0556 C108.7326,56.6262 109.4544,56.916 110.178,56.916 C110.8368,56.916 111.4974,56.6766 112.0176,56.1924 C113.1084,55.1772 113.1696,53.4672 112.1526,52.3764 C110.8458,50.9724 109.4544,49.644 108.0126,48.4272 C106.8732,47.4642 105.1704,47.6082 104.2092,48.7458 C103.2462,49.8852 103.3902,51.588 104.5296,52.551 C105.8058,53.631 107.0424,54.81 108.2016,56.0556 Z" fill="#258C42"></path>
                        <path d="M79.2,18.9 C80.6922,18.9 81.9,17.6922 81.9,16.2 L81.9,3.6 C81.9,2.1078 80.6922,0.9 79.2,0.9 C77.7078,0.9 76.5,2.1078 76.5,3.6 L76.5,16.2 C76.5,17.6922 77.7078,18.9 79.2,18.9 Z" fill="#258C42"></path>
                        <path d="M16.2,80.1 L3.6,80.1 C2.1078,80.1 0.9,81.3078 0.9,82.8 C0.9,84.2904 2.1078,85.5 3.6,85.5 L16.2,85.5 C17.6922,85.5 18.9,84.2904 18.9,82.8 C18.9,81.3078 17.6922,80.1 16.2,80.1 Z" fill="#258C42"></path>
                        <path d="M82.8,143.1 C81.3078,143.1 80.1,144.3096 80.1,145.8 L80.1,158.4 C80.1,159.8904 81.3078,161.1 82.8,161.1 C84.2904,161.1 85.5,159.8904 85.5,158.4 L85.5,145.8 C85.5,144.3096 84.2904,143.1 82.8,143.1 Z" fill="#258C42"></path>
                        <path d="M158.4,76.5 L145.8,76.5 C144.3096,76.5 143.1,77.7078 143.1,79.2 C143.1,80.6922 144.3096,81.9 145.8,81.9 L158.4,81.9 C159.8904,81.9 161.1,80.6922 161.1,79.2 C161.1,77.7078 159.8904,76.5 158.4,76.5 Z" fill="#258C42"></path>
                        <path d="M44.7048,27.1314 C45.2052,27.9972 46.1124,28.4814 47.0448,28.4814 C47.502,28.4814 47.9664,28.3644 48.393,28.1178 C49.6836,27.3726 50.1264,25.7202 49.3812,24.4296 L46.6812,19.7532 C45.936,18.4626 44.2854,18.0198 42.993,18.765 C41.7024,19.5102 41.2596,21.1626 42.0048,22.4532 L44.7048,27.1314 Z" fill="#000000"></path>
                        <path d="M17.9586,49.797 L22.635,52.497 C23.0598,52.7436 23.5242,52.8606 23.9832,52.8606 C24.9174,52.8606 25.8228,52.3764 26.3232,51.5106 C27.0702,50.22 26.6256,48.5676 25.335,47.8224 L20.6586,45.1224 C19.368,44.3754 17.7156,44.82 16.9704,46.1106 C16.2234,47.3994 16.6662,49.05 17.9586,49.797 Z" fill="#000000"></path>
                        <path d="M24.4368,112.617 L19.7586,115.3152 C18.4662,116.0604 18.0234,117.7128 18.7686,119.0052 C19.269,119.871 20.1762,120.3552 21.1104,120.3552 C21.5676,120.3552 22.032,120.24 22.4568,119.9952 L27.135,117.297 C28.4274,116.5518 28.8702,114.8994 28.125,113.6088 C27.3798,112.3146 25.7274,111.8772 24.4368,112.617 Z" fill="#000000"></path>
                        <path d="M51.5142,135.6786 C50.2236,134.9316 48.5712,135.3744 47.826,136.6668 L45.1242,141.3432 C44.3772,142.6338 44.82,144.2862 46.1106,145.0314 C46.5354,145.278 47.0016,145.3932 47.4588,145.3932 C48.3912,145.3932 49.2984,144.909 49.7988,144.0432 L52.5006,139.3668 C53.2476,138.0762 52.8048,136.4238 51.5142,135.6786 Z" fill="#000000"></path>
                        <path d="M117.2988,134.8632 C116.5536,133.5708 114.9012,133.128 113.6106,133.875 C112.32,134.6202 111.8772,136.2708 112.6224,137.5632 L115.3224,142.2432 C115.821,143.109 116.7282,143.5932 117.6624,143.5932 C118.1214,143.5932 118.5858,143.478 119.0106,143.2314 C120.3012,142.4862 120.744,140.8356 119.9988,139.5432 L117.2988,134.8632 Z" fill="#000000"></path>
                        <path d="M144.0468,112.2012 L139.3704,109.4976 C138.0798,108.7524 136.4274,109.1934 135.6804,110.484 C134.9352,111.7764 135.3762,113.427 136.6668,114.174 L141.3432,116.8776 C141.768,117.1242 142.2342,117.2394 142.6932,117.2394 C143.6256,117.2394 144.531,116.7552 145.0332,115.8912 C145.7784,114.5988 145.3374,112.9482 144.0468,112.2012 Z" fill="#000000"></path>
                        <path d="M136.2186,49.7376 C136.6776,49.7376 137.1402,49.6206 137.565,49.3758 L142.245,46.6776 C143.5374,45.9324 143.9802,44.2818 143.2368,42.9912 C142.488,41.6952 140.8374,41.256 139.5486,42.0012 L134.8686,44.6994 C133.5762,45.4446 133.1334,47.0952 133.8768,48.3858 C134.3772,49.2534 135.2844,49.7376 136.2186,49.7376 Z" fill="#000000"></path>
                        <path d="M110.4876,26.316 C110.9124,26.5626 111.3786,26.6796 111.8376,26.6796 C112.77,26.6796 113.6754,26.1954 114.1776,25.3296 L116.8812,20.655 C117.6264,19.3644 117.1854,17.712 115.8948,16.9668 C114.6042,16.2216 112.9536,16.6608 112.2048,17.9514 L109.5012,22.626 C108.756,23.9184 109.197,25.5708 110.4876,26.316 Z" fill="#000000"></path>
                    </g>
                </g>
                <g id="CommerceBlock-White-BG" transform="translate(61.000000, 66.000000)" fill="#258C42">
                    <g id="Group-12">
                        <path d="M10.6912506,7.77073712 L10.6912029,7.76939848 L10.6912506,7.77073712 Z M18.9426436,9.09084394 L17.7816523,8.43045 L13.6565041,6.08400833 L10.6912506,7.77073712 L9.53149884,8.43045 L5.40635058,10.7768917 L0.119043023,7.76939848 L6.88788081,3.91924545 L13.6565041,0.0690924242 L18.9426436,3.07585758 L20.4253419,3.91924545 L24.2287116,6.08400833 L27.1939651,7.76939848 L27.1939651,7.77073712 L21.9067291,10.7768917 L18.9426436,9.09084394 Z" id="Fill-4"></path>
                        <polygon id="Fill-5" points="21.9066814 20.1625644 21.9066814 15.4697515 21.9066814 10.7768917 27.1940366 7.77066667 27.1940366 15.4697515 27.1940366 23.1687894 27.1940366 23.1700576"></polygon>
                        <polygon id="Fill-6" points="5.40627907 20.1625644 0.119043023 23.1700576 6.88795233 27.0201871 13.6565756 30.8704106 18.9425721 27.863575 17.4598977 27.0201871 13.6565756 24.8554947 10.6912506 23.1700576 10.6912506 23.1687894 9.53142733 22.5090061"></polygon>
                        <polygon id="Fill-7" points="5.40627907 15.4697515 5.40627907 20.1625644 0.119043023 23.1700576 5.40627907 20.1625644 0.119043023 23.1700576 0.119043023 23.0907727 0.119043023 15.4697515 0.119043023 7.76939848 5.40627907 10.7768917"></polygon>
                        <path d="M30.3086064,23.1687894 L30.3087494,23.1700576 L30.3086064,23.1687894 Z M22.0572849,21.8486121 L23.2182047,22.5090061 L27.3433529,24.8554947 L30.3086064,23.1687894 L31.4684535,22.5090061 L35.5936017,20.1625644 L40.880814,23.1700576 L34.1119762,27.0201871 L27.3433529,30.8703402 L22.0572849,27.863575 L20.5745866,27.0201871 L16.7711453,24.8554947 L13.8059634,23.1700576 L13.8059634,23.1687894 L19.0931994,20.1625644 L22.0572849,21.8486121 Z" id="Fill-8"></path>
                        <polygon id="Fill-9" points="19.0932709 10.7768917 19.0932709 15.4697515 19.0932709 20.1625644 13.8058919 23.1687894 13.8058919 15.4697515 13.8058919 7.77066667"></polygon>
                        <polygon id="Fill-10" points="35.5935302 10.7768917 40.8808855 7.76939848 34.1119762 3.91924545 27.3434244 0.0690454545 22.0572134 3.07585758 23.5399831 3.91924545 27.3434244 6.08393788 30.3086779 7.76939848 30.3086779 7.77066667 31.468382 8.43052045"></polygon>
                        <polygon id="Fill-11" points="35.5935302 15.4697515 35.5935302 10.7768917 40.8808855 7.76939848 40.8808855 15.4697515 40.8808855 23.1700576 35.5935302 20.1625644"></polygon>
                    </g>
                </g>
            </g>
        </g>
    </g>
</svg>